<svg width="14" height="14" viewBox="0 0 14 14" fill="none" xmlns="http://www.w3.org/2000/svg">
<g clip-path="url(#clip0_2843_5606)">
<path d="M4.86128 13.1159H1.8767C1.35103 13.1159 0.913601 12.7089 0.890289 12.1838C0.839698 11.0442 0.841308 9.91759 0.895116 8.77713C0.917757 8.29727 1.28823 7.90534 1.76712 7.86729C2.55556 7.80465 3.24879 7.80465 4.03722 7.86729C4.51611 7.90534 4.88659 8.29727 4.90923 8.77713C4.97766 10.2273 4.96167 11.6552 4.86128 13.1159Z" stroke="white" stroke-linecap="round" stroke-linejoin="round"/>
<path d="M8.95893 13.1157H5.04073C4.9323 10.5176 4.92233 7.98274 5.01082 5.39633C5.02662 4.93436 5.35972 4.54016 5.81777 4.47816C6.64148 4.36666 7.35818 4.36666 8.18189 4.47816C8.63994 4.54016 8.97304 4.93436 8.98884 5.39633C9.07733 7.98274 9.06736 10.5176 8.95893 13.1157Z" stroke="white" stroke-linecap="round" stroke-linejoin="round"/>
<path d="M12.0486 13.1157H9.08956C8.98014 10.4938 8.97099 4.99726 9.0621 1.89456C9.07567 1.43253 9.40855 1.04016 9.8666 0.978155C10.6903 0.866656 11.407 0.866656 12.2307 0.978155C12.6887 1.04016 13.0216 1.43253 13.0352 1.89456C13.1163 4.65768 13.1179 9.3193 13.04 12.1584C13.0253 12.6942 12.5846 13.1157 12.0486 13.1157Z" stroke="white" stroke-linecap="round" stroke-linejoin="round"/>
</g>
<defs>
<clipPath id="clip0_2843_5606">
<rect width="14" height="14" fill="white"/>
</clipPath>
</defs>
</svg>
