<svg width="14" height="14" viewBox="0 0 14 14" fill="none" xmlns="http://www.w3.org/2000/svg">
<g clip-path="url(#clip0_2843_5611)">
<path fill-rule="evenodd" clip-rule="evenodd" d="M11.1648 13.1994H12.6138C13.1498 13.1994 13.5898 12.7794 13.6028 12.2444C13.6668 9.52739 13.6658 4.38039 13.5978 1.77039C13.5961 1.547 13.514 1.3317 13.3665 1.16387C13.2191 0.996037 13.0161 0.886891 12.7948 0.856391C12.1939 0.779641 11.5857 0.779641 10.9848 0.856391C10.7633 0.886671 10.5602 0.995721 10.4125 1.16357C10.2649 1.33143 10.1826 1.54685 10.1808 1.77039C10.1138 4.38039 10.1118 9.52739 10.1768 12.2434C10.1836 12.5005 10.2911 12.7447 10.476 12.9235C10.6609 13.1022 10.9086 13.2013 11.1658 13.1994H11.1648ZM7.72384 13.1994H6.27584C6.01813 13.2006 5.77015 13.1011 5.58468 12.9222C5.39921 12.7432 5.29091 12.499 5.28284 12.2414C5.22284 10.1214 5.22484 7.42439 5.28784 5.33739C5.30184 4.87539 5.63484 4.48039 6.09384 4.42439C6.69506 4.34756 7.30361 4.34756 7.90484 4.42439C8.36484 4.48039 8.69684 4.87539 8.71084 5.33739C8.77484 7.42439 8.77584 10.1224 8.71584 12.2414C8.70776 12.4988 8.5996 12.7429 8.41435 12.9218C8.2291 13.1007 7.98137 13.2003 7.72384 13.1994ZM2.85984 13.1994H1.35984C1.10752 13.2014 0.864283 13.1054 0.681442 12.9315C0.498602 12.7576 0.39046 12.5195 0.379836 12.2674C0.338557 11.0577 0.339558 9.84699 0.382836 8.63739C0.390322 8.40591 0.483087 8.18537 0.643305 8.01814C0.803524 7.8509 1.01989 7.74878 1.25084 7.73139C1.82273 7.68925 2.39694 7.68925 2.96884 7.73139C3.19969 7.74925 3.41582 7.85169 3.57582 8.01906C3.73581 8.18643 3.8284 8.40697 3.83584 8.63839C3.87984 9.76039 3.88084 11.1304 3.83984 12.2674C3.82921 12.5195 3.72107 12.7576 3.53823 12.9315C3.35539 13.1054 3.11215 13.2014 2.85984 13.1994Z" fill="#B0B9C2"/>
</g>
<defs>
<clipPath id="clip0_2843_5611">
<rect width="14" height="14" fill="white"/>
</clipPath>
</defs>
</svg>
